<svg xmlns:dc="http://purl.org/dc/elements/1.1/" xmlns:cc="http://creativecommons.org/ns#" xmlns:rdf="http://www.w3.org/1999/02/22-rdf-syntax-ns#" xmlns:svg="http://www.w3.org/2000/svg" xmlns="http://www.w3.org/2000/svg" viewBox="0 0 704 704" fill="none"><metadata><rdf:RDF><cc:Work><dc:format>image/svg+xml</dc:format><dc:type rdf:resource="http://purl.org/dc/dcmitype/StillImage"/><dc:title>Open Peeps</dc:title><dc:creator><cc:Agent><dc:title>Pablo Stanley</dc:title></cc:Agent></dc:creator><dc:source>https://www.openpeeps.com/</dc:source><cc:license rdf:resource="https://creativecommons.org/publicdomain/zero/1.0/"/></cc:Work><cc:License rdf:about="https://creativecommons.org/publicdomain/zero/1.0/"><cc:permits rdf:resource="https://creativecommons.org/ns#Reproduction"/><cc:permits rdf:resource="https://creativecommons.org/ns#Distribution"/><cc:permits rdf:resource="https://creativecommons.org/ns#DerivativeWorks"/></cc:License></rdf:RDF></metadata><mask id="avatarsRadiusMask"><rect width="704" height="704" rx="0" ry="0" x="0" y="0" fill="#fff"/></mask><g mask="url(#avatarsRadiusMask)"><g fill-rule="evenodd" clip-rule="evenodd"><path d="M705.281 1074.02a2351.117 2351.117 0 0 1-11.084-68.46c-1.594-10.86-3.149-21.73-4.547-32.618-.979-7.628-2.47-16.351 2.72-22 7.303-7.952 13.937-14.758 14.831-26.149.841-10.717-2.783-22.4-5.049-32.803-4.752-21.816-10.668-43.362-17.205-64.704-6.641-21.683-13.923-43.162-21.31-64.6-6.906-20.044-13.545-40.269-22.54-59.5-17.071-36.495-45.951-63.522-81.643-81.568-8.877-4.488-26.983-20.51-36.257-24.097-8.526-3.298-8.495 6.333-16.886 2.705-6.708-2.9-12.954-6.767-16.71-13.244-4.078-7.033-14.305-16.869-15.862-25.055-3.299-17.351.275-32.12-12.109-45.179-10.994-11.597-25.771-19.542-41.061-23.807-33.636-9.381-78.494-2.822-98.788 28.433-9.693 14.926-13.08 32.968-26.159 45.149-11.421 10.636-8.865 17.908-23.657 23.39-.838.311-23.546-4.56-24.384-4.248-16.182-3.463-31.648 6.23-46.494 11.856-22.133 8.384-43.205 19.298-63.002 32.269-39.92 26.155-74.11 60.118-102.296 98.551-28.42 38.75-50.471 82.182-66.172 127.576a492.842 492.842 0 0 0-10.26 33.455c-1.69 6.307-3.497 12.849-1.438 19.305 1.684 5.283 5.43 9.216 9.829 12.385 5.963 4.297 17.924 7.09 17.69 15.732-.177 6.57-2.406 13.485-3.494 19.978-1.295 7.732-2.36 15.51-3.423 23.276-4.84 35.352-8.607 70.902-10.273 106.552-1.64 35.1-3.001 70.92-.566 106.01.16 2.31.85 4.44 1.964 6.23-1.04.4-1.12 2.34.174 2.61.906.19 1.81.39 2.716.58 1.882 1.42 4.229 2.29 6.93 2.38 1.83.06 3.66.14 5.49.23 19.3 4.04 38.599 7.85 58.152 10.74 23.768 3.5 47.606 6.36 71.518 8.69 49.135 4.78 97.883 3.19 147.083.62 49.124-2.58 98.219-3.18 147.394-1.9 49.218 1.28 98.418 3.42 147.647 4.3 54.999.98 109.914-.52 164.754-4.9 7.519-.59 12.171-6.58 10.688-14.04-8.885-44.75-18.954-89.19-26.911-134.13Z" fill="rgba(208, 139, 91, 1)"/><path d="m201.087 597.521 1.074-.414c14.518-5.671 29.628-14.822 45.421-11.442.558-.208 10.834 1.887 17.872 3.215l-6.68 6.973-11.79 2.268c40.673 67.128 88.778 100.692 144.314 100.692 55.537 0 97.678-33.564 126.425-100.692l3.923-1.085c.484.112 1 .271 1.552.485 9.274 3.587 27.379 19.608 36.256 24.096 35.692 18.047 64.572 45.073 81.643 81.569 8.695 18.59 15.189 38.108 21.85 57.494l.69 2.005c7.387 21.438 14.669 42.918 21.31 64.601 6.253 20.414 11.938 41.015 16.579 61.86l.626 2.844c2.266 10.403 5.89 22.085 5.049 32.803-.318 4.058-1.365 7.534-2.912 10.687l-80.446 28.947 38.326 261.393c-35.107 1.51-70.246 1.9-105.419 1.27-49.229-.88-98.429-3.02-147.647-4.3-47.685-1.24-95.294-.71-142.928 1.67l-12.097.62c-46.613 2.33-92.858 3.52-139.452-1.01l-3.175-.31v-38.24l16.367-212.911-82.945-15.613-81.422-39.546c-2.46-2.459-4.434-5.329-5.532-8.773-1.907-5.98-.498-12.033 1.064-17.905l.375-1.4a492.842 492.842 0 0 1 10.26-33.455c15.7-45.394 37.751-88.827 66.171-127.576 28.187-38.433 62.377-72.396 102.296-98.552 19.797-12.97 40.869-23.884 63.002-32.268Z" fill="rgba(157, 218, 219, 1)"/><path d="M232.235 584.564c5.086-.221 10.272.602 15.346 1.101.442.043.61.725.112.829-9.08 1.897-18.062 4.492-26.98 7.128l-3.819 1.13c-10.057 2.975-19.819 6.044-29.555 10.012-19.404 7.908-37.833 18.582-54.794 30.845C67.233 682.83 19.963 754.324-9.867 828.345a525.982 525.982 0 0 0-20.525 61.653 554.65 554.65 0 0 0-3.83 15.347c-.354 1.505-1.897 5.359-1.05 6.899.747 1.361 3.655 2.202 5.006 2.91l4.561 2.365c8.897 4.585 23.717 12.123 25.203 12.857l2.318 1.141c37.91 18.585 78.418 34.345 121.079 35.436l.334-3.643c1.902-20.141 4.398-40.389 9.846-59.911.293-1.049 1.628-.695 1.75.237 3.035 23.111 2.065 46.402 1.006 69.62-1.875 41.124-4.365 82.224-6.578 123.324-1.108 20.57-2.54 41.11-3.833 61.67-1.295 20.59-1.714 41.68-4.671 62.1-.659 4.55-5.991 7.03-10.029 6.55-4.468-.53-7.905-4.47-7.926-8.98-.054-11.9 1.441-23.94 2.272-35.8.789-11.28 1.636-22.55 2.504-33.82 3.172-41.13 6.821-82.21 10.196-123.33 1.196-14.58 2.488-29.147 3.818-43.715-45.193-1.457-87.414-18.196-127.692-37.754-.583 13.237-1.99 26.45-3.354 39.632-3.805 36.787-7.16 73.557-9.67 110.457-1.269 18.64-2.192 37.3-2.996 55.96a1708.912 1708.912 0 0 0-1.187 36.7l-.137 7.01c-.113 4.44-.564 8.55-4.3 11.78-3.796 3.29-8.922 3.46-12.678 0-5.028-4.63-4.139-10.93-3.99-17.15a1718.048 1718.048 0 0 1 1.775-47.18c1.886-36.64 5.655-73.13 10.58-109.47l1.922-14.03c3.59-26.08 7.532-52.754 15.558-77.877a1428.758 1428.758 0 0 1-9.345-4.691c-5.506-2.788-11.199-5.404-16.55-8.481-4.247-2.441-7.909-5.789-9.09-10.73-1.319-5.505.697-11.526 2.036-16.896l.116-.472a502.049 502.049 0 0 1 4.22-16.153c6.05-21.739 13.53-43.054 22.285-63.849 17.53-41.632 40.157-81.183 67.796-116.944 24.88-32.19 54.269-61.382 88.715-83.276 16.84-10.704 34.786-19.493 53.765-25.707 8.871-2.904 18.523-5.43 27.811-6.47 5.01-.56 10.027-.881 15.061-1.1Zm90.114-65.97c6.044-6.49 18.052.226 15.15 8.82-6.826 20.219-17.696 38.662-34.66 51.948-15.946 12.49-34.961 20.601-55.439 18.87a1.217 1.217 0 0 1-.416-.111l1.765 2.394c13.854 18.741 28.47 37.223 46.087 52.541 35.893 31.211 84.763 48.045 131.953 36.07 37.128-9.421 69.838-38.78 79.458-76.196-1.379.618-3.018.829-4.817.438-7.697-1.671-15.317-9.766-20.281-15.57-5.37-6.279-9.564-13.059-12.638-20.723-5.626-14.026-7.43-32.085.252-45.672.948-1.675 3.134-.736 3.32.899l.292 2.552c1.481 12.734 3.326 25.051 9.33 36.659 2.938 5.68 6.46 11.224 10.747 15.981 2.294 2.545 4.781 4.977 7.466 7.111 2.616 2.079 5.783 3.583 8.128 5.968l.43.458.012-.082c.593-5.041 4.128-7.262 7.587-7.123 3.347.135 7.279 1.608 8.802 2.314l.144.068c23.352 11.21 44.859 25.821 65.099 42.031 41.856 33.524 73.217 77.349 88.412 128.957 7.458 25.329 11.737 51.428 16.254 77.405l2.782 15.917c4.216 23.981 8.926 48.435 18.444 70.743 2.462 5.771.564 11.183-5.473 13.452-7.538 2.834-15.104 5.578-22.682 8.288 3.721 15.963 5.99 32.479 8.778 48.519 5.926 34.1 13.187 67.98 19.413 102.04 3.183 17.41 6.055 34.88 9.235 52.29 1.531 8.39 3.129 16.76 4.683 25.14.837 4.52 1.596 9.06 2.395 13.58l.139.76c.458 2.38 1.033 4.85.376 7.24-.749 2.73-2.876 4.65-4.775 6.61-1.563 1.61-3.822 1.62-5.737.74l-.63-.29c-3.42-1.6-6.1-3.2-7.313-7.06-.768-2.44-1.045-5.19-1.547-7.71-.963-4.82-1.876-9.66-2.738-14.5a3535.65 3535.65 0 0 1-5.052-29.1l-1.536-9.09c-5.27-31.33-10.275-62.85-12.805-94.51-1.123-14.05-2.312-28.08-3.513-42.12l-.901-10.524c-1.14-13.325-2.533-26.987-2.73-40.492l-4.532 1.609-22.11 7.816c-5.482 1.937-12.462 5.907-18.362 5.185-2.888-.354-5.09-1.263-6.79-2.915 2.036 28.733 4.792 57.421 8.465 85.951 3.342 25.97 7.047 51.9 11.423 77.71 2.167 12.78 4.394 25.55 6.813 38.29 1.209 6.37 2.457 12.73 3.743 19.08.641 3.17 1.404 6.35 1.904 9.54.572 3.66-.436 5.91-2.481 8.93-1.679 2.47-5.038 3.74-7.761 2.03-3.606-2.26-5.487-4.22-6.548-8.34-.964-3.75-1.55-7.65-2.296-11.44-1.377-7-2.708-14.01-3.993-21.02-2.687-14.68-5.164-29.38-7.376-44.14-7.795-51.97-12.741-104.37-15.239-156.859-1.233-25.897-1.614-51.817-1.395-77.741.112-13.288.546-26.614 1.486-39.869.952-13.417 2.932-26.566 4.7-39.854.062-.468.722-.495.75 0 .837 14.898 2.149 29.779 2.792 44.716.614 14.253.883 28.528 1.371 42.786.641 18.742 1.53 37.495 2.707 56.235 2.131-2.331 5.343-3.675 8.557-3.15 4.656-.977 9.668-3.42 14.107-4.903l16.734-5.59c8.797-2.938 17.594-5.856 26.422-8.686-7.893-26.553-13.3-53.502-17.917-80.844l-2.059-12.297c-4.075-24.204-8.47-48.419-15.852-71.858-7.761-24.642-19.375-47.552-34.782-68.299-15.187-20.447-33.664-38.451-52.688-55.291-16.287-14.416-33.71-27.432-50.322-41.452.174.929.211 1.952.058 3.076-3.532 25.85-17.017 49.923-35.81 67.828-37.755 35.971-93.642 43.434-141.964 26.566-46.743-16.316-88.07-54.958-102.671-102.775-.25-.818.846-1.143 1.286-.542.81 1.11 1.624 2.22 2.439 3.33-.055-.441.174-.921.718-1.131 17.036-6.578 33.765-15.907 46.535-29.104 6.224-6.433 11.656-13.721 15.944-21.581 2.054-3.765 3.899-7.664 5.371-11.693l.374-1.042c1.784-5.047 3.275-10.193 6.999-14.192Z" fill="#000"/></g><g transform="matrix(.99789 0 0 1 156 62)"><g fill-rule="evenodd" clip-rule="evenodd"><path d="M389.531 161.686c-60.132-39.803-180.6-35.48-246.794-11.094-64.588 20.483-87.2 77.558-97.925 139.221-13.035 69.303-11.283 169.206 82.451 167.997 13.178 6.373 27.777 9.137 41.412 14.415 18.662 6.452 36.96 13.942 55.897 19.593 37.298 12.012 78.802 10.967 114.183-6.61 19.547-9.443 27.638-24.148 40.422-39.817 37.19-45.585 55.903-110.823 54.227-168.786-2.941-40.815-9.692-88.063-43.873-114.919Z" fill="rgba(208, 139, 91, 1)"/><path d="M465.624 329.695c-6.17-38.3-7.88-77.25-15.96-115.25-7.6-35.759-21.81-69.55-46.64-96.81-22.22-24.39-50.95-42.3-81.79-53.65-60.08-22.11-129.18-17.11-187.3 8.701-54.4 24.15-97.79 68.829-123.08 122.449-16.43 34.84-24.69 71.88-28.36 110.11-4.07 42.47-4.51 85.38-6.17 128-.2 5.26-.49 10.52-.56 15.781-.08 5.759 2.25 10.809 4.15 16.169.13.38.32.741.55 1.081-1.43.179-2.86.389-4.29.619-1.6.25-1.53 2.85 0 3.16 12.95 2.64 26.26 3.01 39.43 3.66 13.65.68 27.32 1.051 40.99 1.51l39.99 1.35c7 .24 14 .48 21 .71 3.33.11 6.66.231 10 .34 1.66.061 3.33.109 4.99.17 1.35.04 3.55.9 3.69-.09.25.151.52.279.81.37.32.17.63.37.93.59 1.63 1.12 4.1.98 5.75 0 .15-.09.31-.19.47-.29a6.082 6.082 0 0 0 2.57-2.99c6.84 8.26 18.95-1.02 11.95-9.76-3.76-4.7-41.16-119.93-25.68-207.71l62.08-8.22c11.35-1.15 32.47-3.44 32.47-3.44s5.17-16.87 6.65-22.3c.11-.4.22-.81.34-1.21 1.48 2.611 2.97 5.21 4.47 7.81l7.66 15.57s113.06-1.89 140.78-1.71c.47 0 2.7 33.7 1.69 48.54-2.04 29.8-4.21 59.58-7.23 89.3-1.928 19.031-6.574 37.694-13.495 55.233-10.932 27.707-42.675 54.043-73.625 54.043-19.266 0-62.8-15.604-69.14-18.755-6.34-3.151-10.118 5.449-4.34 8.889 11.704 6.969 43.965 21.75 73.48 21.75 42.863 0 75.22-40.67 79.19-46.5 39.03-2.139 78.95-1.15 117.93 2.72 3.27.32 6.09-3.62 5.04-6.63-14-40.069-24.65-81.399-31.39-123.31Z" fill="#000"/></g></g><g transform="translate(315 248)"><g clip-rule="evenodd"><path fill-rule="evenodd" d="M166.69 207.933c11.871 0 16.898 1.93 24.621 6.468 7.723 4.538 15.979 10.387 17.932 19.149 1.822 8.164-1.763 16.119-9.698 19.233-4.438 1.743-55.577 5.823-63.6 6.356-8.022.533-15.678-.125-20.83-5.468-13.311-13.805 5.174-31.703 16.986-38.312 10.547-5.904 22.718-7.426 34.589-7.426Zm-2.745 9.31c-8.929 0-23.558 6.531-23.558 9.711 0 3.18 42.635.023 43.549-2.697.914-2.72-11.062-7.014-19.991-7.014Zm6.869-72.876c7.551 4.59 19.057 15.293 10.934 26.673-9.562 10.033-23.33-1.471-30.114-6.674-6.291-4.032-13.359 6.338-7.522 11.047 49.024 36.295 68.918-29.846 30.521-36.443-4.227-.727-5.797 3.977-3.819 5.397Zm-85.273-41.601c12.862-9.496 32.102-2.187 35.272 12.67 2.203 1.159 3.402 3.002 3.663 5.7l.065.675c.311 3.205-2.541 6.239-5.392 7.084-3.209.95-5.749.459-8.728-.904-2.855-1.307-3.849-5.015-3.33-7.836l.046-.233c.763-3.501-2.239-6.893-5.26-8.28-3.409-1.565-7.234-.585-10.198 1.489-3.29 2.301-6.028 6.237-6.954 10.159l-.092.408c-.73 3.385-1.279 9.738 2.006 11.682.582.343.167 1.131-.434 1.027-7.138-1.221-11.389-5.515-11.432-13.196-.046-8.134 4.323-15.687 10.768-20.445Zm118.439-2.702c12.845-4.556 28.909 7.683 23.961 21.819-3.249 9.281-15.815 5.561-14.645-3.742l.04-.284c.745-4.84-2.921-7.123-7.415-5.535-6.661 2.355-10.253 12.821-7.132 18.927.383.75-.688 1.385-1.134.662l-.428-.687c-3.485-5.55-6.664-9.647-5.519-16.737 1.054-6.535 6.055-12.219 12.272-14.423Zm-26.052-33.646c-.033-.625.625-1.046 1.187-.905 4.566 1.149 8.699 4.469 12.857 6.623 4.538 2.35 9.186 4.249 14.114 5.64 4.802 1.357 9.654 2.033 14.646 1.99 5.401-.044 10.687-2.071 15.984-1.904 7.964.25 12.125 11.83 4.282 15.81-11.42 5.794-28.357 1.585-39.465-3.231-8.941-3.877-23.023-13.038-23.605-24.023Zm-58.007 2.647c4.166-5.364 12.595-5.686 16.294.634 3.821 6.53-.771 13.077-7.264 14.428-11.849 5.297-23.985 9.351-36.927 11.032l-1.753.221c-11.264 1.37-25.48 2.118-35.657-3.078-.997-.51-.695-2.029.303-2.314 5.738-1.64 12.164-1.637 18.065-2.714 5.613-1.023 11.18-2.155 16.646-3.814 10.799-3.279 21.031-7.965 30.293-14.395Z" fill="#000"/><path d="M133.238 229.722s10.156-16.505 26.862-16.505c16.707 0 36.052 8.69 34.7 12.822-.723 2.208-16.259 8.445-42.174 8.691-6.427.061-19.388-5.008-19.388-5.008Z" stroke="#22252B" stroke-width="1.5"/></g></g><g transform="translate(279 400)"/><g transform="translate(179 343)"/><g transform="translate(203 303)"><g fill-rule="evenodd" clip-rule="evenodd"><path d="M370.268 94.081c-9.18 11.469-45.117 24.2-64.243 10.38-19.127-13.82-26.685-23.45-29.242-40.72-.272-1.84-3.602-3.065-5.009-1.758-7.881 7.32-12.983 16.644-18.037 25.991-5.7 10.542-11.315 21.149-21.674 28.286-18.349 9.835-51.543 11.236-61.349 6.897-18.786-8.31-33.647-26.084-37.026-50.544 0 0-3.438-10.85-6.449-13.133-2.854-2.164-18.607-4.092-20.332-4.412-31.1-5.77-70.432-9.449-98.13 10.852C5.026 68.186-7.806 76.7-7.996 74.606c-.134-8.2 9.158-26.757 30.29-35.587 26.131-10.92 64.976-11.558 87.48-9.149 1.132.121 4.99-.826 5.263-.945 34.093-14.76 73.322-10.84 109.802-4.636 5.227 1.014 52.024 12.602 70.638 5.581 30.776-12.564 63.59-21.666 96.824-18.085.278.03 4.474 25.496 1.205 27.234-2.601 1.382-7.026 4.925-8.599 6.864-1.405 1.733-2.291 3.888-2.212 6.873.632 17.27-4.296 31.165-12.428 41.325ZM243.729 78.672c3.902-5.645 5.134-18.326 3.5-27.577-.827-4.684-2.434-8.413-4.45-10.269-1.339-1.233-2.868-1.814-4.535-1.728-.915.047-1.905.307-2.953.873-14.193-7.678-31.388-10.442-47.686-9.647-12.975-.003-22.233 3.06-28.51 7.827-7.554 5.736-10.957 13.982-11.154 22.925-.234 10.612 4.126 22.221 11.276 31.407 6.845 8.792 16.207 15.31 26.365 16.814 11.53 2.289 23.281.075 33.497-5.342 10.478-5.556 19.329-14.478 24.65-25.283Zm113.779 5.987c6.576-7.772 10.949-17.882 11.615-27.9.606-9.116-1.835-18.146-8.585-25.61-6.119-5.251-16.932-5.338-28.306-2.414-14.708 3.782-29.924 12.234-34.996 17.693-1.195.626-2.304 1.717-3.27 4.057l-.007.834c-1.537 7.087-.625 14.278 2.033 20.912 2.887 7.206 7.839 13.748 13.877 18.74 8.022 6.608 16.395 8.63 24.233 7.563 8.878-1.208 17.133-6.463 23.406-13.875Z" fill="#fff"/><path d="M294.419 27.063c31.165-12.724 64.478-21.895 98.204-18.26 2.789-1.062 6.251-.168 7.487 3.776 12.013 36.595-14.776 26.418-14.416 40.098 2.808 76.703-100.287 89.802-111.879 11.504l-.213.126c-16.678 15.563-20.191 40.888-39.838 54.423-39.633 28.985-95.815 6.02-103.031-45.58l-.157-.698c-2.422-10.53-5.318-13.142-17.265-13.09l-1.887-.375c-31.04-6.115-72.372-11.61-100.96 9.42-6.219 3.616-6.51 12.912-11.765 16.951-5.756 1.118-9.302-5.805-9.692-10.596-.912-47.763 84.558-51.199 122.836-47.1.731-.757 2.292-.663 2.818.28 34.618-14.988 73.619-12.914 110.685-6.61 22.961 4.444 45.639 14.57 69.073 5.731Zm95.101-9.443c-18.701-.935-35.999.088-54.355 4.583-9.674 2.334-17.098 5.285-26.358 8.834-57.758 25.59-64.42-19.896-193.888-2.066 1.675 7.174 1.983 14.277 2.073 21.017 26.435-1.065 20.211 24.177 30.115 41.906l.305.535c14.434 25.868 48.494 37.934 75.969 20.776 22.922-13.36 25.158-47.245 47.98-60.693 19.783-.778 11.881 25.922 22.647 36.896 15.154 20.221 47.365 23.048 66.367 4.028 8.915-9.152 13.653-20.772 13.915-33.256.497-7.976-.871-16.08 5.159-21.69 4.227-4.295 11.737-2.862 12.599-9.353.548-3.838-1.048-8-2.528-11.517ZM186.28 28.074c18.577-.915 38.233 2.311 54.184 11.422 11.807-9.396 14.7 27.946 6.863 38.747-11.291 23.102-37.578 38.291-62.889 33.247-39.486-5.722-66.998-83.484 1.842-83.415Zm53.05 13.927-1.011-.148c-17.112-2.611-63.707-14.708-81.678 4.384-17.441 31.67 26.806 84.863 72.851 42.494 12.815-13.047 17.782-28.868 9.838-46.73Zm54.229 4.047c8.862-10.493 54.027-31.747 69.77-18.108 28.733 32.201-16.834 97.334-55 65.601-12.712-10.607-21.075-27.507-17.415-43.872l.006-.686c.008-.249.054-.192.32-.502.471-1.237 1.319-2.027 2.319-2.433Zm69.369 19.517c9.69-52.557-30.809-32.577-64.069-18.549 1.785 1.631 1.777 3.858 1.264 5.688-3.508 38.996 43.889 61.094 62.805 12.861ZM111.171 30.216C97.298 34.914 5.537 26.512-2.939 69.526 6.007 55.03 24.54 49.276 41.2 46.154c22.66-4.247 45.197-1.788 67.54 2.681l.462-4.624c.495-4.905 1.018-9.493 1.968-13.995Z" fill="#000"/></g></g></g></svg>